<svg width="1440" height="778" xmlns="http://www.w3.org/2000/svg"><g><path d="M-94,-52L-126,683L-106,277Z" fill="#c8ecff" stroke="#c8ecff"/><path d="M-94,-52L-106,277L-61,110Z" fill="#f6feff" stroke="#f6feff"/><path d="M-94,-52L-61,110L112,-86Z" fill="#f9faff" stroke="#f9faff"/><path d="M112,-86L-61,110L102,124Z" fill="#eef6fd" stroke="#eef6fd"/><path d="M112,-86L102,124L174,-59Z" fill="#eaf2fa" stroke="#eaf2fa"/><path d="M112,-86L174,-59L348,-61Z" fill="#e2edf7" stroke="#e2edf7"/><path d="M112,-86L348,-61L495,-99Z" fill="#d8e9f3" stroke="#d8e9f3"/><path d="M174,-59L102,124L262,73Z" fill="#e1eff8" stroke="#e1eff8"/><path d="M174,-59L262,73L348,-61Z" fill="#ddebf5" stroke="#ddebf5"/><path d="M348,-61L262,73L396,24Z" fill="#d5e8f3" stroke="#d5e8f3"/><path d="M348,-61L396,24L495,-99Z" fill="#cfe5f0" stroke="#cfe5f0"/><path d="M495,-99L396,24L487,58Z" fill="#c9e1ef" stroke="#c9e1ef"/><path d="M495,-99L487,58L669,-23Z" fill="#bedbed" stroke="#bedbed"/><path d="M495,-99L669,-23L767,-33Z" fill="#b3d5ea" stroke="#b3d5ea"/><path d="M495,-99L767,-33L1105,-91Z" fill="#a4cbe4" stroke="#a4cbe4"/><path d="M495,-99L1105,-91L1533,-92Z" fill="#8fb7d9" stroke="#8fb7d9"/><path d="M669,-23L487,58L672,24Z" fill="#b5d7eb" stroke="#b5d7eb"/><path d="M669,-23L672,24L767,-33Z" fill="#add1e7" stroke="#add1e7"/><path d="M767,-33L672,24L827,110Z" fill="#a4cde5" stroke="#a4cde5"/><path d="M767,-33L827,110L919,81Z" fill="#9bc8e2" stroke="#9bc8e2"/><path d="M767,-33L919,81L1023,-18Z" fill="#99c2df" stroke="#99c2df"/><path d="M767,-33L1023,-18L1105,-91Z" fill="#95bddd" stroke="#95bddd"/><path d="M1023,-18L919,81L1087,182Z" fill="#8bbadb" stroke="#8bbadb"/><path d="M1023,-18L1087,182L1139,52Z" fill="#87b2d6" stroke="#87b2d6"/><path d="M1023,-18L1139,52L1105,-91Z" fill="#8db2d5" stroke="#8db2d5"/><path d="M1105,-91L1139,52L1302,-73Z" fill="#87a8ce" stroke="#87a8ce"/><path d="M1105,-91L1302,-73L1533,-92Z" fill="#809ac3" stroke="#809ac3"/><path d="M1302,-73L1139,52L1270,129Z" fill="#81a2ca" stroke="#81a2ca"/><path d="M1302,-73L1270,129L1404,-19Z" fill="#7f99c2" stroke="#7f99c2"/><path d="M1302,-73L1404,-19L1533,-92Z" fill="#808fbb" stroke="#808fbb"/><path d="M1404,-19L1270,129L1479,91Z" fill="#7a92be" stroke="#7a92be"/><path d="M1404,-19L1479,91L1533,-92Z" fill="#8089b7" stroke="#8089b7"/><path d="M1533,-92L1479,91L1614,64Z" fill="#7e81b1" stroke="#7e81b1"/><path d="M-61,110L-106,277L134,191Z" fill="#ddf5ff" stroke="#ddf5ff"/><path d="M-61,110L134,191L102,124Z" fill="#e1f4fd" stroke="#e1f4fd"/><path d="M102,124L134,191L262,73Z" fill="#d9eff9" stroke="#d9eff9"/><path d="M262,73L134,191L279,202Z" fill="#cee9f7" stroke="#cee9f7"/><path d="M262,73L279,202L396,214Z" fill="#c4e5f4" stroke="#c4e5f4"/><path d="M262,73L396,214L396,24Z" fill="#cce7f2" stroke="#cce7f2"/><path d="M396,24L396,214L487,58Z" fill="#c4e4f0" stroke="#c4e4f0"/><path d="M487,58L396,214L493,192Z" fill="#b6dfef" stroke="#b6dfef"/><path d="M487,58L493,192L672,24Z" fill="#b5dbed" stroke="#b5dbed"/><path d="M672,24L493,192L708,230Z" fill="#a3d4ea" stroke="#a3d4ea"/><path d="M672,24L708,230L827,110Z" fill="#9ecee6" stroke="#9ecee6"/><path d="M827,110L708,230L840,172Z" fill="#8dc7e4" stroke="#8dc7e4"/><path d="M827,110L840,172L919,81Z" fill="#92c5e1" stroke="#92c5e1"/><path d="M919,81L840,172L956,283Z" fill="#82bedf" stroke="#82bedf"/><path d="M919,81L956,283L1087,182Z" fill="#7bb7dc" stroke="#7bb7dc"/><path d="M1139,52L1087,182L1257,168Z" fill="#7aa9d0" stroke="#7aa9d0"/><path d="M1139,52L1257,168L1270,129Z" fill="#7aa3cb" stroke="#7aa3cb"/><path d="M1270,129L1257,168L1429,277Z" fill="#6594c3" stroke="#6594c3"/><path d="M1270,129L1429,277L1479,91Z" fill="#6a8ebd" stroke="#6a8ebd"/><path d="M1479,91L1429,277L1546,169Z" fill="#6883b6" stroke="#6883b6"/><path d="M1479,91L1546,169L1614,64Z" fill="#7781b1" stroke="#7781b1"/><path d="M1614,64L1546,169L1550,356Z" fill="#647aaf" stroke="#647aaf"/><path d="M1614,64L1550,356L1599,538Z" fill="#446aad" stroke="#446aad"/><path d="M1614,64L1599,538L1619,927Z" fill="#1c4c9c" stroke="#1c4c9c"/><path d="M-106,277L-126,683L-86,401Z" fill="#a5d5f5" stroke="#a5d5f5"/><path d="M-106,277L-86,401L118,341Z" fill="#b8e2ff" stroke="#b8e2ff"/><path d="M-106,277L118,341L134,191Z" fill="#c4e8fd" stroke="#c4e8fd"/><path d="M134,191L118,341L279,202Z" fill="#bee4f8" stroke="#bee4f8"/><path d="M279,202L118,341L168,409Z" fill="#a9d9f8" stroke="#a9d9f8"/><path d="M279,202L168,409L407,356Z" fill="#9ed3f5" stroke="#9ed3f5"/><path d="M279,202L407,356L396,214Z" fill="#a9daf2" stroke="#a9daf2"/><path d="M396,214L407,356L493,192Z" fill="#a2d7f0" stroke="#a2d7f0"/><path d="M493,192L407,356L561,386Z" fill="#8bcbee" stroke="#8bcbee"/><path d="M493,192L561,386L652,348Z" fill="#82c6ec" stroke="#82c6ec"/><path d="M493,192L652,348L708,230Z" fill="#8acaeb" stroke="#8acaeb"/><path d="M708,230L652,348L856,405Z" fill="#6bb7e6" stroke="#6bb7e6"/><path d="M708,230L856,405L840,172Z" fill="#74bce4" stroke="#74bce4"/><path d="M840,172L856,405L956,283Z" fill="#69b3e0" stroke="#69b3e0"/><path d="M956,283L856,405L982,381Z" fill="#53a5dc" stroke="#53a5dc"/><path d="M956,283L982,381L1155,336Z" fill="#50a0da" stroke="#50a0da"/><path d="M956,283L1155,336L1087,182Z" fill="#60a6d7" stroke="#60a6d7"/><path d="M1087,182L1155,336L1257,168Z" fill="#64a2cf" stroke="#64a2cf"/><path d="M1257,168L1155,336L1407,334Z" fill="#508fc7" stroke="#508fc7"/><path d="M1257,168L1407,334L1429,277Z" fill="#5488bf" stroke="#5488bf"/><path d="M1429,277L1407,334L1550,356Z" fill="#4373b7" stroke="#4373b7"/><path d="M1429,277L1550,356L1546,169Z" fill="#5277b4" stroke="#5277b4"/><path d="M-86,401L-126,683L-25,569Z" fill="#94c3ec" stroke="#94c3ec"/><path d="M-86,401L-25,569L128,524Z" fill="#95c7f1" stroke="#95c7f1"/><path d="M-86,401L128,524L118,341Z" fill="#9ed1f6" stroke="#9ed1f6"/><path d="M118,341L128,524L168,409Z" fill="#95ccf2" stroke="#95ccf2"/><path d="M168,409L128,524L255,509Z" fill="#86c0ec" stroke="#86c0ec"/><path d="M168,409L255,509L407,356Z" fill="#88c5ed" stroke="#88c5ed"/><path d="M407,356L255,509L394,532Z" fill="#79bbe7" stroke="#79bbe7"/><path d="M407,356L394,532L545,527Z" fill="#6db5e3" stroke="#6db5e3"/><path d="M407,356L545,527L561,386Z" fill="#70b9e6" stroke="#70b9e6"/><path d="M561,386L545,527L652,348Z" fill="#66b4e4" stroke="#66b4e4"/><path d="M652,348L545,527L687,583Z" fill="#54a6dd" stroke="#54a6dd"/><path d="M652,348L687,583L795,466Z" fill="#50a4dc" stroke="#50a4dc"/><path d="M652,348L795,466L856,405Z" fill="#56aadf" stroke="#56aadf"/><path d="M856,405L795,466L950,554Z" fill="#3f97d5" stroke="#3f97d5"/><path d="M856,405L950,554L982,381Z" fill="#3f97d5" stroke="#3f97d5"/><path d="M982,381L950,554L1107,561Z" fill="#2f87cc" stroke="#2f87cc"/><path d="M982,381L1107,561L1155,336Z" fill="#398dce" stroke="#398dce"/><path d="M1155,336L1107,561L1241,432Z" fill="#3081c6" stroke="#3081c6"/><path d="M1155,336L1241,432L1407,334Z" fill="#3a82c4" stroke="#3a82c4"/><path d="M1241,432L1107,561L1224,578Z" fill="#2070bd" stroke="#2070bd"/><path d="M1241,432L1224,578L1455,551Z" fill="#1a65b3" stroke="#1a65b3"/><path d="M1241,432L1455,551L1407,334Z" fill="#286cb6" stroke="#286cb6"/><path d="M1407,334L1455,551L1550,356Z" fill="#2e65b0" stroke="#2e65b0"/><path d="M1550,356L1455,551L1599,538Z" fill="#2153a5" stroke="#2153a5"/><path d="M-25,569L-126,683L-30,823Z" fill="#8fa0d3" stroke="#8fa0d3"/><path d="M-25,569L-30,823L118,624Z" fill="#87a1d6" stroke="#87a1d6"/><path d="M-25,569L118,624L128,524Z" fill="#83b5e6" stroke="#83b5e6"/><path d="M128,524L118,624L255,509Z" fill="#7bb4e6" stroke="#7bb4e6"/><path d="M255,509L118,624L277,641Z" fill="#75a8dd" stroke="#75a8dd"/><path d="M255,509L277,641L394,532Z" fill="#6dacdf" stroke="#6dacdf"/><path d="M394,532L277,641L346,672Z" fill="#699ed5" stroke="#699ed5"/><path d="M394,532L346,672L505,684Z" fill="#6197d0" stroke="#6197d0"/><path d="M394,532L505,684L545,527Z" fill="#5a9ed6" stroke="#5a9ed6"/><path d="M545,527L505,684L687,583Z" fill="#4d93d1" stroke="#4d93d1"/><path d="M687,583L505,684L683,683Z" fill="#4784c6" stroke="#4784c6"/><path d="M687,583L683,683L875,635Z" fill="#3b7fc4" stroke="#3b7fc4"/><path d="M687,583L875,635L795,466Z" fill="#388ed0" stroke="#388ed0"/><path d="M795,466L875,635L950,554Z" fill="#3189ce" stroke="#3189ce"/><path d="M950,554L875,635L1005,698Z" fill="#2a72bd" stroke="#2a72bd"/><path d="M950,554L1005,698L1107,561Z" fill="#2471bf" stroke="#2471bf"/><path d="M1107,561L1005,698L1128,618Z" fill="#2066b6" stroke="#2066b6"/><path d="M1107,561L1128,618L1224,578Z" fill="#1c68b7" stroke="#1c68b7"/><path d="M1224,578L1128,618L1323,650Z" fill="#1759ac" stroke="#1759ac"/><path d="M1224,578L1323,650L1455,551Z" fill="#1353a8" stroke="#1353a8"/><path d="M1455,551L1323,650L1390,682Z" fill="#12459d" stroke="#12459d"/><path d="M1455,551L1390,682L1583,709Z" fill="#123692" stroke="#123692"/><path d="M1455,551L1583,709L1599,538Z" fill="#133a95" stroke="#133a95"/><path d="M1599,538L1583,709L1619,927Z" fill="#111b7a" stroke="#111b7a"/><path d="M-126,683L-108,994L-30,823Z" fill="#8e80ba" stroke="#8e80ba"/><path d="M118,624L-30,823L94,808Z" fill="#828bc6" stroke="#828bc6"/><path d="M118,624L94,808L277,641Z" fill="#7993cd" stroke="#7993cd"/><path d="M277,641L94,808L280,881Z" fill="#727cbb" stroke="#727cbb"/><path d="M277,641L280,881L346,672Z" fill="#6a83c1" stroke="#6a83c1"/><path d="M346,672L280,881L391,792Z" fill="#6676b7" stroke="#6676b7"/><path d="M346,672L391,792L505,684Z" fill="#5f83c0" stroke="#5f83c0"/><path d="M505,684L391,792L496,769Z" fill="#5977b9" stroke="#5977b9"/><path d="M505,684L496,769L683,683Z" fill="#4d79bd" stroke="#4d79bd"/><path d="M683,683L496,769L615,849Z" fill="#486ab2" stroke="#486ab2"/><path d="M683,683L615,849L864,875Z" fill="#3a59a7" stroke="#3a59a7"/><path d="M683,683L864,875L875,635Z" fill="#3364b0" stroke="#3364b0"/><path d="M875,635L864,875L1005,698Z" fill="#2a5aab" stroke="#2a5aab"/><path d="M1005,698L864,875L991,851Z" fill="#26469c" stroke="#26469c"/><path d="M1005,698L991,851L1136,788Z" fill="#1f469e" stroke="#1f469e"/><path d="M1005,698L1136,788L1128,618Z" fill="#1e53a8" stroke="#1e53a8"/><path d="M1128,618L1136,788L1323,650Z" fill="#184ba2" stroke="#184ba2"/><path d="M1323,650L1136,788L1317,827Z" fill="#133490" stroke="#133490"/><path d="M1323,650L1317,827L1373,801Z" fill="#102b89" stroke="#102b89"/><path d="M1323,650L1373,801L1390,682Z" fill="#113490" stroke="#113490"/><path d="M1390,682L1373,801L1535,840Z" fill="#101d7f" stroke="#101d7f"/><path d="M1390,682L1535,840L1583,709Z" fill="#101d7f" stroke="#101d7f"/><path d="M1583,709L1535,840L1619,927Z" fill="#0f036a" stroke="#0f036a"/><path d="M-30,823L-108,994L39,979Z" fill="#887ca8" stroke="#887ca8"/><path d="M-30,823L39,979L94,808Z" fill="#8278b2" stroke="#8278b2"/><path d="M94,808L39,979L196,1019Z" fill="#7973a3" stroke="#7973a3"/><path d="M94,808L196,1019L280,881Z" fill="#726fa6" stroke="#726fa6"/><path d="M280,881L196,1019L406,1034Z" fill="#676a95" stroke="#676a95"/><path d="M280,881L406,1034L391,792Z" fill="#6267a0" stroke="#6267a0"/><path d="M391,792L406,1034L532,962Z" fill="#586399" stroke="#586399"/><path d="M391,792L532,962L496,769Z" fill="#5661a8" stroke="#5661a8"/><path d="M496,769L532,962L615,849Z" fill="#4c5ca2" stroke="#4c5ca2"/><path d="M615,849L532,962L735,958Z" fill="#425795" stroke="#425795"/><path d="M615,849L735,958L864,875Z" fill="#374f96" stroke="#374f96"/><path d="M864,875L735,958L813,939Z" fill="#304b8d" stroke="#304b8d"/><path d="M864,875L813,939L993,1002Z" fill="#284487" stroke="#284487"/><path d="M864,875L993,1002L991,851Z" fill="#243f8b" stroke="#243f8b"/><path d="M991,851L993,1002L1067,1015Z" fill="#1e3a7f" stroke="#1e3a7f"/><path d="M991,851L1067,1015L1136,788Z" fill="#1c3589" stroke="#1c3589"/><path d="M1136,788L1067,1015L1230,971Z" fill="#172c7b" stroke="#172c7b"/><path d="M1136,788L1230,971L1317,827Z" fill="#132380" stroke="#132380"/><path d="M1317,827L1230,971L1459,928Z" fill="#0d186f" stroke="#0d186f"/><path d="M1317,827L1459,928L1373,801Z" fill="#0e1375" stroke="#0e1375"/><path d="M1373,801L1459,928L1535,840Z" fill="#0e0b6e" stroke="#0e0b6e"/><path d="M1535,840L1459,928L1619,927Z" fill="#0e0260" stroke="#0e0260"/><path d="M-108,994L196,1019L39,979Z" fill="#7f779b" stroke="#7f779b"/><path d="M406,1034L1067,1015L993,1002Z" fill="#2c497c" stroke="#2c497c"/><path d="M406,1034L993,1002L735,958Z" fill="#385184" stroke="#385184"/><path d="M406,1034L735,958L532,962Z" fill="#495b8c" stroke="#495b8c"/><path d="M735,958L993,1002L813,939Z" fill="#2b4784" stroke="#2b4784"/><path d="M1067,1015L1619,927L1230,971Z" fill="#0c1b66" stroke="#0c1b66"/><path d="M1230,971L1619,927L1459,928Z" fill="#0d0d61" stroke="#0d0d61"/></g></svg>